<svg xmlns="http://www.w3.org/2000/svg" xmlns:xlink="http://www.w3.org/1999/xlink" width="500" zoomAndPan="magnify" viewBox="0 0 375 374.999991" height="500" preserveAspectRatio="xMidYMid meet" version="1.0"><defs><clipPath id="eebf65c0c8"><path d="M 112.5 131.332031 L 262.5 131.332031 L 262.5 243.832031 L 112.5 243.832031 Z M 112.5 131.332031 " clip-rule="nonzero"/></clipPath></defs><g clip-path="url(#eebf65c0c8)"><path fill="#823c85" d="M 250.730469 243.644531 L 124.125 243.644531 C 123.164062 243.519531 122.464844 243.414062 122.023438 243.320312 C 117.96875 242.46875 114.601562 239.292969 113.25 235.5 C 112.847656 234.367188 112.695312 233.179688 112.5 231.976562 L 112.5 142.820312 C 112.710938 142.25 112.695312 141.605469 112.8125 141.117188 C 112.972656 140.449219 113.136719 139.707031 113.402344 139.089844 C 115.113281 135.089844 118.097656 132.617188 122.355469 131.671875 C 122.746094 131.585938 123.140625 131.535156 123.535156 131.515625 C 124.0625 131.496094 124.578125 131.371094 125.113281 131.371094 C 166.359375 131.351562 208.046875 131.351562 250.175781 131.371094 C 250.496094 131.371094 250.816406 131.394531 251.132812 131.441406 C 251.449219 131.488281 251.765625 131.53125 252.085938 131.574219 C 253.1875 131.71875 254.164062 131.980469 255.007812 132.359375 C 259.039062 134.160156 262.015625 137.949219 262.3125 142.457031 C 262.359375 143.191406 262.433594 143.902344 262.429688 144.625 C 262.261719 167.011719 262.355469 189.417969 262.355469 213.386719 C 262.355469 218.519531 262.492188 223.917969 262.417969 229.328125 C 262.398438 230.992188 262.359375 232.121094 262.304688 232.710938 C 261.96875 236.253906 260.296875 239.140625 257.289062 241.375 C 255.855469 242.4375 254.25 243.109375 252.480469 243.398438 C 251.898438 243.492188 251.316406 243.574219 250.730469 243.644531 Z M 185.234375 198.863281 C 187.140625 199.585938 189.375 199.117188 190.855469 197.742188 C 203.921875 185.574219 216.914062 173.53125 229.832031 161.613281 C 237.292969 154.726562 244.6875 147.878906 252.023438 141.066406 C 252.136719 140.960938 252.136719 140.851562 252.03125 140.738281 C 251.867188 140.5625 251.617188 140.476562 251.289062 140.476562 C 208.503906 140.460938 166.238281 140.453125 124.488281 140.453125 C 123.671875 140.453125 123.203125 140.644531 122.648438 141.171875 C 122.570312 141.25 122.570312 141.324219 122.652344 141.398438 C 123.101562 141.789062 123.546875 142.191406 123.996094 142.597656 C 128.972656 147.148438 134.558594 152.308594 140.75 158.085938 C 154.039062 170.484375 166.933594 182.46875 179.441406 194.042969 C 180.550781 195.070312 181.691406 196.121094 182.859375 197.199219 C 183.796875 198.066406 184.589844 198.621094 185.234375 198.863281 Z M 253.101562 152.953125 C 253.101562 152.921875 253.085938 152.898438 253.054688 152.875 C 253.023438 152.847656 252.992188 152.847656 252.960938 152.871094 C 251.933594 153.664062 251.105469 154.601562 250.125 155.511719 C 239.511719 165.371094 228.625 175.527344 217.464844 185.980469 C 217.355469 186.082031 217.246094 186.171875 217.125 186.253906 C 216.957031 186.367188 216.949219 186.492188 217.105469 186.625 C 217.476562 186.9375 217.804688 187.230469 218.09375 187.5 C 224.128906 193.152344 230.621094 199.277344 237.578125 205.863281 C 238.925781 207.136719 240.105469 208.273438 241.125 209.273438 C 242.230469 210.359375 243.40625 211.386719 244.507812 212.46875 C 245.371094 213.316406 246.21875 214.117188 247.042969 214.867188 C 248.417969 216.113281 249.675781 217.425781 251.058594 218.675781 C 251.714844 219.265625 252.347656 219.878906 252.960938 220.519531 C 252.988281 220.546875 253.015625 220.558594 253.054688 220.550781 C 253.109375 220.539062 253.136719 220.511719 253.136719 220.472656 C 253.140625 198.003906 253.136719 175.542969 253.132812 153.089844 C 253.132812 153.0625 253.128906 153.035156 253.113281 153.007812 C 253.105469 152.992188 253.101562 152.972656 253.101562 152.953125 Z M 121.980469 220.550781 C 122.910156 219.625 123.914062 218.644531 125 217.613281 C 134.707031 208.382812 144.292969 199.226562 153.761719 190.148438 C 154.839844 189.113281 155.972656 188.042969 157.160156 186.9375 C 157.394531 186.722656 157.390625 186.511719 157.15625 186.296875 C 156.699219 185.882812 156.265625 185.484375 155.855469 185.097656 C 144.414062 174.386719 133.644531 164.355469 123.542969 155 C 122.9375 154.4375 122.359375 153.898438 121.808594 153.378906 C 121.78125 153.355469 121.769531 153.355469 121.769531 153.378906 L 121.726562 220.445312 C 121.726562 220.6875 121.8125 220.722656 121.980469 220.550781 Z M 187.933594 208.574219 C 183.386719 208.78125 179.71875 207.132812 176.394531 204 C 173.363281 201.152344 169.628906 197.652344 165.183594 193.5 C 164.996094 193.324219 164.792969 193.15625 164.578125 192.992188 C 164.429688 192.882812 164.289062 192.890625 164.15625 193.015625 C 163.597656 193.519531 163.070312 194.089844 162.527344 194.609375 C 150.933594 205.683594 139.445312 216.679688 128.074219 227.597656 C 126.636719 228.980469 125.355469 230.183594 124.230469 231.210938 C 123.597656 231.792969 122.996094 232.363281 122.4375 232.929688 C 122.285156 233.082031 122.28125 233.234375 122.429688 233.390625 C 123.328125 234.351562 124.121094 234.285156 125.574219 234.285156 C 167.152344 234.285156 208.730469 234.285156 250.304688 234.285156 C 251.332031 234.285156 251.898438 234.183594 252.445312 233.351562 C 252.574219 233.160156 252.550781 232.984375 252.386719 232.828125 C 238.988281 220.152344 225.59375 207.464844 212.207031 194.761719 C 211.460938 194.054688 210.828125 193.414062 210.308594 192.847656 C 210.242188 192.773438 210.15625 192.730469 210.054688 192.726562 C 209.953125 192.722656 209.867188 192.757812 209.789062 192.824219 C 206.015625 196.316406 202.269531 199.855469 198.527344 203.371094 C 197.089844 204.722656 195.980469 205.652344 195.195312 206.160156 C 192.878906 207.652344 190.457031 208.460938 187.933594 208.574219 Z M 187.933594 208.574219 " fill-opacity="1" fill-rule="nonzero"/></g></svg>